# xmcd CD database file
#
# Track frame offsets:
#	150
#	15542
#	31429
#	43522
#	60249
#	74213
#	89069
#	106751
#	121456
#	134623
#	146848
#	163581
#
# Disc length: 2336 seconds
#
# Revision: 0
# Processed by: cddbd v1.5.2PL0 Copyright (c) Steve Scherf et al.
# Submitted via: CDex 1.51
#
DISCID=ae091e0c
DTITLE=Sarah Gayle Meech - One Good Thing
DYEAR=2013
DGENRE=Country
TTITLE0=One Good Thing
TTITLE1=Old White Boots
TTITLE2=All I Wants A Honky Tonk
TTITLE3=Unlucky In Love
TTITLE4=Sound Of A Heartbreak
TTITLE5=Drink Myself To Sleep
TTITLE6=Foolish
TTITLE7=No Angel
TTITLE8=Movin' On Song
TTITLE9=Sad And Lonely
TTITLE10=Lucky Girl
TTITLE11=Honey Put Your Money Where Your Mouth Is
EXTD=YEAR: 2013
EXTT0=
EXTT1=
EXTT2=
EXTT3=
EXTT4=
EXTT5=
EXTT6=
EXTT7=
EXTT8=
EXTT9=
EXTT10=
EXTT11=
PLAYORDER=
